<?xml version="1.0" encoding="UTF-8" standalone="no"?>
<!-- Created with Inkscape (http://www.inkscape.org/) -->

<svg
   xmlns:dc="http://purl.org/dc/elements/1.1/"
   xmlns:cc="http://creativecommons.org/ns#"
   xmlns:rdf="http://www.w3.org/1999/02/22-rdf-syntax-ns#"
   xmlns:svg="http://www.w3.org/2000/svg"
   xmlns="http://www.w3.org/2000/svg"
   xmlns:sodipodi="http://sodipodi.sourceforge.net/DTD/sodipodi-0.dtd"
   xmlns:inkscape="http://www.inkscape.org/namespaces/inkscape"
   width="210mm"
   height="297mm"
   viewBox="0 0 210 297"
   version="1.1"
   id="svg8"
   inkscape:version="0.92.2 2405546, 2018-03-11"
   sodipodi:docname="nnip-logo.svg">
  <defs
     id="defs2">
    <clipPath
       clipPathUnits="userSpaceOnUse"
       id="clipPath4613">
      <rect
         style="fill:#999999;fill-opacity:1;stroke:none;stroke-width:5.29166651;stroke-miterlimit:4;stroke-dasharray:none;stroke-opacity:1"
         id="rect4615"
         width="9.6147699"
         height="5.5751486"
         x="76.13858"
         y="155.25893" />
    </clipPath>
  </defs>
  <sodipodi:namedview
     id="base"
     pagecolor="#ffffff"
     bordercolor="#666666"
     borderopacity="1.0"
     inkscape:pageopacity="0.0"
     inkscape:pageshadow="2"
     inkscape:zoom="11.2"
     inkscape:cx="287.18858"
     inkscape:cy="516.00269"
     inkscape:document-units="mm"
     inkscape:current-layer="layer1"
     showgrid="false"
     inkscape:window-width="1507"
     inkscape:window-height="991"
     inkscape:window-x="2024"
     inkscape:window-y="25"
     inkscape:window-maximized="0" />
  <metadata
     id="metadata5">
    <rdf:RDF>
      <cc:Work
         rdf:about="">
        <dc:format>image/svg+xml</dc:format>
        <dc:type
           rdf:resource="http://purl.org/dc/dcmitype/StillImage" />
        <dc:title></dc:title>
      </cc:Work>
    </rdf:RDF>
  </metadata>
  <g
     inkscape:label="Layer 1"
     inkscape:groupmode="layer"
     id="layer1">
    <path
       inkscape:connector-curvature="0"
       id="path4596"
       d="m 76.755279,163.141 v -2.0828 l 4.272621,0.003 4.272622,0.003 0.0033,2.07954 0.0033,2.07953 h -4.275937 -4.275906 z m 1.219822,0.36986 c 0,-0.51066 0.0035,-0.64874 0.01622,-0.64839 0.0089,3.1e-4 0.211956,0.29077 0.451187,0.6456 l 0.434965,0.64514 0.191243,0.004 0.191243,0.004 -0.0033,-1.05472 -0.0033,-1.05471 h -0.194653 -0.194652 l -0.0065,0.64235 c -0.0042,0.41526 -0.01108,0.64235 -0.01946,0.64235 -0.0071,0 -0.208581,-0.29066 -0.447653,-0.64592 l -0.434675,-0.64593 -0.188212,0.004 -0.188213,0.004 -0.0033,1.05437 -0.0033,1.05437 h 0.201218 0.201217 z m 2.296899,-0.001 c 0,-0.51401 0.0034,-0.64886 0.01622,-0.64481 0.0089,0.003 0.19577,0.27045 0.415217,0.59477 0.219447,0.32431 0.416412,0.61448 0.437701,0.64481 l 0.03871,0.0551 h 0.188508 0.188508 l -0.0033,-1.05437 -0.0033,-1.05436 h -0.194652 -0.194653 l -0.0034,0.64559 c -0.0026,0.50377 -0.0069,0.64549 -0.01947,0.64508 -0.0089,-3.1e-4 -0.196809,-0.26962 -0.417677,-0.5985 -0.220867,-0.32888 -0.418106,-0.62078 -0.438306,-0.64867 l -0.03673,-0.0507 -0.184582,0.004 -0.184582,0.004 -0.0033,1.05437 -0.0033,1.05437 h 0.201217 0.201217 v -0.64993 z m 2.348807,-0.40803 v -1.05795 l -0.197897,0.004 -0.197897,0.004 -0.0034,1.03815 c -0.0018,0.57098 -6.13e-4,1.04545 0.0028,1.05437 0.0046,0.012 0.05715,0.0162 0.201249,0.0162 h 0.19506 v -1.05795 z m 1.128985,0.64269 0.0065,-0.40877 0.188165,-0.008 c 0.206878,-0.009 0.27243,-0.0249 0.38301,-0.0956 0.182187,-0.11654 0.284827,-0.32149 0.282932,-0.56493 -0.0019,-0.24183 -0.109744,-0.43645 -0.304218,-0.54891 -0.116983,-0.0676 -0.166445,-0.074 -0.578198,-0.074 h -0.380478 v 1.05795 1.05795 l 0.197897,-0.004 0.197896,-0.004 z m 0.01536,-0.83413 c -0.01162,-0.014 -0.01502,-0.0792 -0.01243,-0.23817 l 0.0036,-0.21889 0.14998,-0.004 c 0.138024,-0.003 0.153445,-0.001 0.193459,0.026 0.07395,0.0503 0.09646,0.0922 0.101615,0.18897 0.0039,0.0728 -4.6e-4,0.0968 -0.02651,0.1454 -0.04735,0.0885 -0.09389,0.10933 -0.256873,0.11494 -0.109381,0.004 -0.140004,9.2e-4 -0.152799,-0.0146 z M 76.75528,159.832 v -0.77231 l 0.866203,0.003 0.866204,0.003 v 0.76563 0.76563 l -0.866204,0.003 -0.866203,0.003 z m 2.791214,0.7484 c -0.0071,-0.0132 -0.0095,-0.0367 -0.0054,-0.0523 0.0051,-0.0194 0.182422,-0.14661 0.566569,-0.40631 0.307544,-0.20792 0.569695,-0.38078 0.582557,-0.38414 0.02224,-0.006 0.02322,0.0152 0.01997,0.42692 l -0.0034,0.43304 -0.573696,0.003 c -0.54667,0.003 -0.574301,0.002 -0.586535,-0.0206 z m 1.497131,0.008 c -0.0034,-0.009 -0.0047,-0.35501 -0.0029,-0.76897 l 0.0034,-0.75266 h 0.914867 0.914866 v 0.76564 0.76563 l -0.911996,0.003 c -0.72271,0.003 -0.913291,-6e-5 -0.918235,-0.013 z m 2.167059,-1.4e-4 c -0.0035,-0.009 -0.0048,-0.17705 -0.0029,-0.37322 l 0.0035,-0.35668 h 0.577469 0.577468 v 0.36984 0.36984 l -0.57458,0.003 c -0.456077,0.003 -0.575888,-3e-5 -0.580927,-0.0132 z m 1.499982,-0.009 c -0.01611,-0.0301 -0.01861,-0.68679 -0.0027,-0.71184 0.0081,-0.0127 0.07733,-0.0157 0.301514,-0.013 l 0.291055,0.003 v 0.36984 0.36984 l -0.288146,0.004 c -0.274469,0.003 -0.288789,0.002 -0.301711,-0.0219 z m -5.88893,-0.75701 0.0033,-0.7559 h 0.188164 0.188164 v 0.63587 0.63586 l -0.173753,0.12004 c -0.09556,0.066 -0.181745,0.12004 -0.191513,0.12004 -0.01486,0 -0.01721,-0.12328 -0.01441,-0.75591 z m 0.718463,0.25524 c -0.01185,-0.0309 -0.0091,-0.98265 0.0029,-1.00154 0.0082,-0.0128 0.134317,-0.0156 0.587003,-0.013 l 0.576619,0.003 v 0.1289 0.12889 l -0.570981,0.38639 c -0.314039,0.21251 -0.574735,0.38662 -0.579325,0.38692 -0.0046,3.1e-4 -0.01189,-0.009 -0.01622,-0.02 z m 3.673351,-0.55898 c -0.01363,-0.0136 -0.01062,-2.62311 0.003,-2.63155 0.0065,-0.004 0.269323,0.20337 0.584051,0.46085 l 0.572231,0.46815 -0.0033,0.85229 -0.0033,0.85229 -0.571929,0.003 c -0.31456,0.002 -0.575882,-6.1e-4 -0.580713,-0.005 z m 1.49152,-0.0118 c -0.01035,-0.027 -0.01044,-1.34669 -9.2e-5,-1.37366 0.0043,-0.0113 0.01312,-0.0205 0.01954,-0.0205 0.0064,0 0.14017,0.10546 0.297241,0.23436 l 0.285581,0.23436 -0.0034,0.46963 -0.0034,0.46964 -0.293742,0.003 c -0.259367,0.003 -0.294676,0.001 -0.301711,-0.0173 z m -7.94979,-1.498 v -0.72688 l 0.866203,0.003 0.866204,0.003 v 0.72021 0.72022 l -0.866204,0.003 -0.866203,0.003 z m 2.069407,0.71084 c -0.0035,-0.009 -0.0048,-0.33483 -0.003,-0.72381 l 0.0034,-0.70724 h 0.188164 0.188164 v 0.72022 0.72021 l -0.18519,0.004 c -0.14099,0.003 -0.186704,-3e-4 -0.191535,-0.013 z m 0.715563,-0.005 c -0.01191,-0.031 -0.0092,-1.39802 0.0029,-1.41693 0.0082,-0.0128 0.134316,-0.0156 0.587002,-0.013 l 0.576619,0.003 v 0.72021 0.72022 l -0.579274,0.003 c -0.519797,0.003 -0.580088,10e-4 -0.587202,-0.0173 z m 1.506122,0.0118 c -0.01223,-0.0122 -0.011,-1.39001 0.0012,-1.39758 0.0055,-0.003 0.202578,0.0495 0.437968,0.11748 0.23539,0.068 0.644045,0.18612 0.908124,0.26246 l 0.480144,0.13882 v 0.44045 0.44045 l -0.909374,0.003 c -0.500154,0.002 -0.913305,-6.1e-4 -0.91811,-0.005 z m 3.962172,-0.80981 c -0.146312,-0.12069 -0.276244,-0.23183 -0.288734,-0.24699 -0.02074,-0.0252 -0.02269,-0.0698 -0.02251,-0.516 1.04e-4,-0.26864 0.0049,-0.49586 0.01065,-0.50492 0.0081,-0.0127 0.07733,-0.0157 0.301513,-0.013 l 0.291055,0.004 0.0034,0.74941 c 0.0027,0.59565 0,0.7492 -0.01298,0.7484 -0.009,-6.1e-4 -0.136038,-0.0997 -0.282352,-0.22043 z m -3.049554,-0.67202 c -0.481765,-0.14042 -0.886156,-0.25943 -0.898646,-0.26447 -0.02119,-0.009 -0.02271,-0.0516 -0.02271,-0.64544 v -0.63628 h 0.373478 0.373477 l 0.548046,0.44812 0.548045,0.4481 -0.0034,0.45037 c -0.0029,0.38895 -0.0061,0.45067 -0.02288,0.45263 -0.0107,0.001 -0.413636,-0.11261 -0.895401,-0.25303 z m 1.950415,-0.22662 c -0.236958,-0.19403 -0.431123,-0.36017 -0.431479,-0.36918 -4.6e-4,-0.013 0.09236,-0.0157 0.443809,-0.013 l 0.444456,0.003 0.0034,0.3666 c 0.0027,0.28919 -2.6e-5,0.36642 -0.01298,0.36577 -0.009,-4.6e-4 -0.210298,-0.15958 -0.447256,-0.35362 z m -7.154125,-0.30088 v -0.24026 l 0.866203,0.003 0.866204,0.003 v 0.23359 0.23358 l -0.866204,0.003 -0.866203,0.003 z m 2.072308,0.23176 c -0.0049,-0.005 -0.009,-0.28832 -0.009,-0.62972 v -0.62072 h 0.194777 0.194777 l -0.0034,0.62613 -0.0034,0.62613 -0.182416,0.004 c -0.100329,0.002 -0.186463,-4.6e-4 -0.191409,-0.005 z m 0.712662,-0.0121 c -0.0044,-0.0114 -0.0079,-0.29464 -0.0079,-0.62951 v -0.60885 h 0.59057 0.590569 l -0.0034,0.62613 -0.0034,0.62614 -0.579273,0.003 c -0.519797,0.003 -0.580088,0.001 -0.587202,-0.0173 z m 3.145442,-0.92178 c -0.196274,-0.16093 -0.362411,-0.29799 -0.369191,-0.30459 -0.0075,-0.007 0.570215,-0.012 1.48933,-0.012 h 1.50166 l -0.0035,0.30171 -0.0035,0.30171 -1.128984,0.003 -1.128984,0.003 z m -5.930412,-0.0894 v -0.22718 h 0.869754 0.869754 l -0.0036,0.22385 -0.0036,0.22385 -0.866204,0.003 -0.866203,0.003 z"
       style="fill:#999999;fill-opacity:1;stroke-width:0.01297683"
       clip-path="url(#clipPath4613)"
       transform="translate(-10.291959,1.68534)"
       inkscape:export-xdpi="96.550186"
       inkscape:export-ydpi="96.550186" />
    <path
       inkscape:connector-curvature="0"
       id="path4594"
       d="m 66.46332,164.82634 v -2.0828 l 4.272621,0.003 4.272622,0.003 0.0033,2.07954 0.0033,2.07953 H 70.739226 66.46332 Z m 1.203477,1.02106 c 0.01238,-0.008 0.01688,-0.15835 0.01947,-0.65189 0.002,-0.38604 0.0082,-0.64166 0.01548,-0.64166 0.0067,0 0.203645,0.28322 0.437746,0.62937 0.2341,0.34616 0.438063,0.6396 0.453251,0.65209 0.02284,0.0188 0.05408,0.0227 0.180836,0.0227 0.08427,0 0.16246,-0.004 0.17375,-0.008 0.01848,-0.007 0.02053,-0.11293 0.02053,-1.0641 v -1.05622 h -0.201019 -0.20102 l -0.0034,0.64236 c -0.002,0.39088 -0.0082,0.64302 -0.01563,0.64406 -0.0067,9.2e-4 -0.206175,-0.28611 -0.443173,-0.63788 -0.236999,-0.35177 -0.440011,-0.64468 -0.451138,-0.65091 -0.01113,-0.006 -0.0993,-0.007 -0.195936,-0.002 l -0.175704,0.009 v 1.05456 c 0,0.8315 0.0034,1.05594 0.01622,1.0611 0.02676,0.0108 0.352335,0.009 0.369716,-0.002 z m 2.296899,0 c 0.01238,-0.008 0.01687,-0.15835 0.01947,-0.65189 0.0019,-0.36038 0.0084,-0.64166 0.01484,-0.64166 0.0063,0 0.199014,0.27738 0.428235,0.6164 0.229221,0.33902 0.427085,0.631 0.439699,0.64884 0.02196,0.0311 0.02958,0.0326 0.179599,0.0368 0.08617,0.002 0.17074,7.6e-4 0.187941,-0.003 l 0.03127,-0.008 v -1.05737 -1.05736 H 71.063731 70.86271 l -0.0034,0.64235 c -0.0022,0.41603 -0.0079,0.64291 -0.01634,0.64393 -0.0071,9.2e-4 -0.207255,-0.28658 -0.444706,-0.63874 -0.237452,-0.35217 -0.440145,-0.64501 -0.450429,-0.65077 -0.01029,-0.006 -0.09777,-0.006 -0.194403,-0.002 l -0.175704,0.009 v 1.05455 c 0,0.83151 0.0034,1.05594 0.01622,1.0611 0.02676,0.0108 0.352335,0.009 0.369716,-0.002 z m 2.357737,-0.01 c 0.01819,-0.0182 0.02039,-0.13131 0.02039,-1.05019 0,-0.91889 -0.0022,-1.032 -0.02039,-1.0502 -0.01642,-0.0164 -0.05285,-0.0204 -0.187104,-0.0204 -0.09169,0 -0.175947,0.004 -0.187237,0.008 -0.01848,0.007 -0.02053,0.11284 -0.02053,1.06302 0,0.83197 0.0034,1.05652 0.01622,1.06168 0.0089,0.004 0.09318,0.007 0.187237,0.008 0.139134,7.7e-4 0.174818,-0.003 0.191409,-0.0194 z m 1.115872,0.0125 c 0.0181,-0.007 0.02053,-0.055 0.02053,-0.40617 0,-0.29249 0.0041,-0.40244 0.01557,-0.41387 0.01031,-0.0103 0.0663,-0.0156 0.165973,-0.0156 0.246736,0 0.372339,-0.0471 0.505673,-0.18963 0.129493,-0.13843 0.192148,-0.32018 0.176792,-0.51284 -0.01427,-0.17897 -0.07476,-0.31098 -0.194346,-0.42408 -0.08866,-0.0838 -0.205133,-0.14017 -0.325779,-0.15754 -0.104168,-0.015 -0.706308,-0.018 -0.728376,-0.004 -0.01055,0.007 -0.01734,0.30048 -0.02424,1.04847 -0.0089,0.96556 -0.008,1.04048 0.01234,1.06085 0.0183,0.0183 0.04945,0.0219 0.188631,0.0219 0.09169,0 0.175947,-0.004 0.187237,-0.008 z m 0.02918,-1.25953 c -0.0048,-0.005 -0.0086,-0.10331 -0.0086,-0.21901 0,-0.16862 0.0038,-0.21349 0.01895,-0.2261 0.01309,-0.0109 0.06304,-0.0144 0.161306,-0.0113 0.164538,0.005 0.196185,0.02 0.244735,0.11497 0.05373,0.10515 0.02758,0.2406 -0.06079,0.31496 -0.04023,0.0339 -0.0474,0.0351 -0.194336,0.0351 -0.08391,0 -0.156457,-0.004 -0.161216,-0.009 z"
       style="fill:#999999;fill-opacity:1;stroke-width:0.01297683"
       inkscape:export-xdpi="96.550186"
       inkscape:export-ydpi="96.550186" />
  </g>
</svg>
