<svg xmlns="http://www.w3.org/2000/svg" width="144" height="144"><defs><filter height="1.146" y="-.073" width="1.143" x="-.071" id="a" color-interpolation-filters="sRGB"><feGaussianBlur stdDeviation="2.952"/></filter></defs><path d="M72.57 932.372c.234 1.52-7.514 2.193-20.097 8.89-4.218 2.252-9.222 5.44-13.193 9.853a33.931 33.931 0 0 0-7.118 12.315c-1.569 4.779-2.148 10.084-2.062 15.842.183 10.271 4.433 21.336 12.597 29.332 7.563 7.46 18.397 12.034 29.332 12.019 10.97.024 21.8-4.566 29.35-12 8.212-8.031 12.442-19.119 12.637-29.35.268-11.704-5.325-21.778-12-27.708-7.602-6.86-16.788-9.68-22.127-10.992-5.794-1.423-8.901-1.62-8.939-2.27-.023-.407 3.053-1.332 9.338-.87 5.829.43 16.02 2.339 25.487 9.586 8.325 6.471 15.659 17.918 15.926 32.253.098 6.115-1 12.481-3.35 18.568-2.35 6.088 6.551 24.149 1.643 29.148-4.547 4.604-22.543-3.943-28.586-1.386-6.043 2.558-12.635 3.967-19.38 3.979-13.446-.016-26.346-5.59-35.48-14.828-9.786-9.952-14.433-23.172-14.25-35.48.086-6.421 1.074-12.564 3.186-18.203a39.247 39.247 0 0 1 9.358-14.276c5.068-4.867 10.83-7.927 15.605-9.873 14.07-5.75 22.102-4.683 22.122-4.549z" transform="translate(-16.599 -1135.027) scale(1.23054)" opacity=".887" filter="url(#a)"/></svg>